<?xml version="1.0" encoding="UTF-8"?>
<svg width="123px" height="32px" viewBox="0 0 123 32" version="1.1" xmlns="http://www.w3.org/2000/svg" xmlns:xlink="http://www.w3.org/1999/xlink">
    <!-- Generator: Sketch 48.2 (47327) - http://www.bohemiancoding.com/sketch -->
    <title>Page 1</title>
    <desc>Created with Sketch.</desc>
    <defs>
        <polygon id="path-1" points="0.8387 0.147 10.0327 0.147 10.0327 15.0136 0.8387 15.0136"></polygon>
        <polygon id="path-3" points="0.8914 0.8006 2 0.8006 2 2.0136 0.8914 2.0136"></polygon>
    </defs>
    <g id="email-signatures" stroke="none" stroke-width="1" fill="none" fill-rule="evenodd" transform="translate(-461.000000, -291.000000)">
        <g id="Page-1" transform="translate(461.000000, 290.000000)">
            <path d="M5.6725,15.867 C2.5515,15.867 1.6875,14.981 1.6875,12.324 L1.6875,7.031 L0.0005,7.031 L0.4005,5.955 L1.6875,5.955 L1.6875,3.13 L2.2775,3.13 C3.2265,3.13 3.6905,3.573 3.6905,4.437 L3.6905,5.955 L6.4525,5.955 L6.0515,7.031 L3.6905,7.031 L3.6905,12.598 C3.6905,14.074 4.2385,14.791 5.3145,14.77 L6.3475,14.77 L6.7265,15.867 L5.6725,15.867 Z" id="Fill-1" fill="#00AECF"></path>
            <path d="M15.3517,15.867 C14.4447,15.867 14.0017,15.424 14.0017,14.538 L14.0017,11.059 L11.8507,11.059 C9.8897,11.059 9.2787,11.586 9.2787,12.999 C9.2787,14.348 9.9747,14.77 11.6617,14.77 L12.6527,14.77 L13.0317,15.867 L11.4087,15.867 C8.6877,15.867 7.3377,14.918 7.3377,12.999 C7.3377,10.89 8.6877,9.983 11.6187,9.983 L13.9597,9.983 C13.8117,8.022 12.8637,7.031 11.1127,7.031 L9.0257,7.031 L8.6877,5.955 L11.1127,5.955 C14.3817,5.955 16.0047,7.389 16.0047,10.237 L16.0047,15.867 L15.3517,15.867 Z" id="Fill-3" fill="#00AECF"></path>
            <path d="M26.9499,15.867 C26.0219,15.867 25.5579,15.424 25.5579,14.559 L25.5579,11.227 C25.5579,8.128 24.6929,7.031 22.3739,7.031 L20.3919,7.031 L20.3919,15.867 L19.7379,15.867 C18.8309,15.867 18.3669,15.424 18.3669,14.559 L18.3669,5.955 L22.6689,5.955 C25.9589,5.955 27.6029,7.495 27.6029,10.595 L27.6029,15.867 L26.9499,15.867 Z" id="Fill-5" fill="#00AECF"></path>
            <g id="Group-9" transform="translate(29.000000, 0.853400)">
                <mask id="mask-2" fill="white">
                    <use xlink:href="#path-1"></use>
                </mask>
                <g id="Clip-8"></g>
                <path d="M5.4987,15.0136 C2.3987,15.0136 0.8387,13.5156 0.8387,10.5006 L0.8387,9.6146 C0.8387,6.5996 2.3987,5.1016 5.4987,5.1016 L6.8697,5.1016 L6.4907,6.1986 L5.4987,6.1986 C3.7067,6.1986 2.7997,7.3376 2.7997,9.6146 L2.7997,10.5006 C2.7997,12.7776 3.7697,13.9166 5.7097,13.9166 L8.0717,13.9166 L8.0717,0.1466 L8.6417,0.1466 C9.5687,0.1466 10.0327,0.5896 10.0327,1.4536 L10.0327,15.0136 L5.4987,15.0136 Z" id="Fill-7" fill="#00AECF" mask="url(#mask-2)"></path>
            </g>
            <path d="M50.1037,10.2576 C50.1037,10.7416 50.0827,11.1006 50.0197,11.4386 L44.4307,11.4386 L44.7897,10.2996 L48.3327,10.2996 C48.3327,8.0226 47.5097,6.8836 45.8867,6.8836 L45.6117,6.8836 C44.0097,6.8836 43.1667,8.3386 43.1667,10.4676 L43.1667,11.7756 C43.1667,13.4626 44.3677,14.7706 46.0547,14.7706 L48.7967,14.7706 L49.1977,15.8666 L46.0757,15.8666 C42.9347,15.8666 41.1837,14.2846 41.1837,11.3546 L41.1837,10.4676 C41.1837,7.6636 42.8077,5.8496 45.6117,5.8496 L45.8867,5.8496 C48.6907,5.8496 50.1037,7.3256 50.1037,10.2576" id="Fill-10" fill="#00AECF"></path>
            <path d="M66.2145,15.867 C65.2865,15.867 64.8225,15.424 64.8225,14.559 L64.8225,10.321 C64.8225,7.6 64.1685,7.031 62.2285,7.031 L59.5085,7.031 C60.2045,7.643 60.5635,8.824 60.5635,10.574 L60.5635,15.867 L59.9305,15.867 C59.0025,15.867 58.5385,15.424 58.5385,14.559 L58.5385,10.321 C58.5385,7.643 57.8845,7.031 55.9445,7.031 L54.0895,7.031 L54.0895,15.867 L53.4355,15.867 C52.5285,15.867 52.0655,15.424 52.0655,14.559 L52.0655,5.934 L56.2395,5.934 C57.6955,5.934 58.6865,6.188 59.1925,6.694 L59.7615,5.934 L62.5035,5.934 C65.7295,5.934 66.8465,7.284 66.8465,10.574 L66.8465,15.867 L66.2145,15.867 Z" id="Fill-12" fill="#00AECF"></path>
            <path d="M76.3786,13.2518 C76.3786,15.0438 75.2186,15.8668 71.9496,15.8668 L68.9136,15.8668 L69.2936,14.7708 L72.1396,14.7708 C73.6376,14.7708 74.3756,14.2848 74.3756,13.3148 C74.3756,12.7458 73.9956,12.4298 72.3716,11.5858 L71.1066,10.9538 C69.2716,10.0678 68.9976,9.5408 68.9976,8.3808 C68.9976,6.6088 70.0736,5.9558 73.1306,5.9558 L75.9356,5.9558 L75.5346,7.0308 L72.9206,7.0308 C71.6756,7.0308 71.0646,7.4318 71.0646,8.2118 C71.0646,8.8658 71.2116,8.9918 72.5826,9.7308 L73.6376,10.2998 C74.6916,10.8688 75.3456,11.2488 75.5776,11.4598 C76.1046,11.9228 76.3786,12.5138 76.3786,13.2518" id="Fill-14" fill="#00AECF"></path>
            <path d="M87.049,10.2576 C87.049,10.7416 87.028,11.1006 86.964,11.4386 L81.376,11.4386 L81.735,10.2996 L85.278,10.2996 C85.278,8.0226 84.455,6.8836 82.831,6.8836 L82.557,6.8836 C80.954,6.8836 80.111,8.3386 80.111,10.4676 L80.111,11.7756 C80.111,13.4626 81.313,14.7706 83,14.7706 L85.741,14.7706 L86.142,15.8666 L83.021,15.8666 C79.879,15.8666 78.129,14.2846 78.129,11.3546 L78.129,10.4676 C78.129,7.6636 79.753,5.8496 82.557,5.8496 L82.831,5.8496 C85.636,5.8496 87.049,7.3256 87.049,10.2576" id="Fill-16" fill="#00AECF"></path>
            <path d="M94.071,15.74 C93.987,15.951 93.713,16.056 93.227,16.056 C92.742,16.056 92.468,15.951 92.384,15.74 L87.934,5.955 L89.221,5.955 C89.938,5.955 90.402,6.23 90.613,6.799 L93.396,13.8 L96.137,6.799 C96.454,6.103 96.707,5.955 97.445,5.955 L98.331,5.955 L94.071,15.74 Z" id="Fill-18" fill="#00AECF"></path>
            <path d="M108.3263,10.2576 C108.3263,10.7416 108.3053,11.1006 108.2423,11.4386 L102.6533,11.4386 L103.0123,10.2996 L106.5553,10.2996 C106.5553,8.0226 105.7323,6.8836 104.1083,6.8836 L103.8343,6.8836 C102.2313,6.8836 101.3883,8.3386 101.3883,10.4676 L101.3883,11.7756 C101.3883,13.4626 102.5903,14.7706 104.2773,14.7706 L107.0183,14.7706 L107.4193,15.8666 L104.2983,15.8666 C101.1563,15.8666 99.4063,14.2846 99.4063,11.3546 L99.4063,10.4676 C99.4063,7.6636 101.0303,5.8496 103.8343,5.8496 L104.1083,5.8496 C106.9133,5.8496 108.3263,7.3256 108.3263,10.2576" id="Fill-20" fill="#00AECF"></path>
            <path d="M118.8698,15.867 C117.9418,15.867 117.4778,15.424 117.4778,14.559 L117.4778,11.227 C117.4778,8.128 116.6138,7.031 114.2938,7.031 L112.3118,7.031 L112.3118,15.867 L111.6578,15.867 C110.7508,15.867 110.2878,15.424 110.2878,14.559 L110.2878,5.955 L114.5888,5.955 C117.8788,5.955 119.5238,7.495 119.5238,10.595 L119.5238,15.867 L118.8698,15.867 Z" id="Fill-22" fill="#00AECF"></path>
            <path d="M121.6647,14.7654 L121.2887,14.7654 L121.2887,15.8674 L121.2307,15.8674 C121.1527,15.8674 121.1117,15.8294 121.1117,15.7554 L121.1117,14.7654 L120.7027,14.7654 L120.7357,14.6544 L121.6967,14.6544 L121.6647,14.7654 Z" id="Fill-24" fill="#00AECF"></path>
            <g id="Group-28" transform="translate(121.000000, 13.853400)">
                <mask id="mask-4" fill="white">
                    <use xlink:href="#path-3"></use>
                </mask>
                <g id="Clip-27"></g>
                <path d="M1.9474,2.0136 C1.8654,2.0136 1.8254,1.9756 1.8254,1.9016 L1.8254,1.1346 L1.4464,1.7656 C1.4404,1.7746 1.4354,1.7786 1.4274,1.7786 C1.4214,1.7786 1.4164,1.7746 1.4104,1.7656 L1.0224,1.1386 L1.0224,2.0136 L0.9784,2.0136 C0.9204,2.0136 0.8914,1.9806 0.8914,1.9176 L0.8914,0.8006 L0.9454,0.8006 C0.9964,0.8006 1.0324,0.8206 1.0574,0.8596 L1.4524,1.5326 L1.8464,0.8636 C1.8704,0.8226 1.9084,0.8006 1.9594,0.8006 L2.0004,0.8006 L2.0004,2.0136 L1.9474,2.0136 Z" id="Fill-26" fill="#00AECF" mask="url(#mask-4)"></path>
            </g>
            <path d="M46.1701,31.0081 C46.3891,31.4451 46.8271,31.7481 47.3271,31.7481 C48.0571,31.7481 48.6411,31.1121 48.6411,30.3301 L48.6411,30.2781 L48.6201,30.2681 C48.2131,30.6751 47.6921,30.9251 47.1081,30.9251 C45.8581,30.9251 44.8461,29.7671 44.8461,28.3491 C44.8461,26.9211 45.8581,25.7751 47.1081,25.7751 C47.6921,25.7751 48.2131,26.0251 48.6201,26.4421 L48.6411,26.4311 L48.6411,25.9101 L49.8091,25.9101 L49.8091,30.3301 C49.8091,31.7271 48.7761,32.8531 47.3791,32.8531 C46.4411,32.8531 45.6281,32.3531 45.1911,31.5921 L46.1701,31.0081 Z M47.3591,29.8301 C48.0991,29.8301 48.7141,29.1731 48.7141,28.3491 C48.7141,27.5261 48.0991,26.8691 47.3591,26.8691 C46.6291,26.8691 46.0141,27.5261 46.0141,28.3491 C46.0141,29.1731 46.6291,29.8301 47.3591,29.8301 Z" id="Fill-29" fill="#00AECF"></path>
            <path d="M53.8849,29.3504 L54.6979,30.1534 C54.2289,30.6324 53.5729,30.9244 52.8529,30.9244 C51.4139,30.9244 50.2669,29.7774 50.2669,28.3494 C50.2669,26.9214 51.3829,25.7744 52.7799,25.7744 C54.1669,25.7744 55.2819,26.9214 55.2819,28.3494 C55.2819,28.5794 55.2609,28.6414 55.2609,28.6414 L51.4349,28.6414 C51.4349,29.1834 52.0709,29.8194 52.8009,29.8194 C53.2279,29.8194 53.6039,29.6314 53.8849,29.3504 Z M54.0209,27.6714 L54.0309,27.6514 C53.7699,27.1714 53.3119,26.8484 52.7799,26.8484 C52.2269,26.8484 51.7999,27.1504 51.5189,27.6514 L51.5289,27.6714 L54.0209,27.6714 Z" id="Fill-31" fill="#00AECF"></path>
            <path d="M56.9411,28.3494 L56.9411,30.7884 L55.7741,30.7884 L55.7741,25.9104 L56.9411,25.9104 L56.9411,26.5044 L56.9621,26.5144 C57.3581,26.0244 57.8901,25.7744 58.4421,25.7744 C60.5271,25.7744 60.5801,27.6714 60.5801,28.2554 L60.5801,30.7884 L59.4121,30.7884 L59.4121,28.3494 C59.4121,27.7664 59.4011,26.8694 58.1921,26.8694 C57.5041,26.8694 56.9411,27.5264 56.9411,28.3494" id="Fill-33" fill="#00AECF"></path>
            <path d="M63.8508,30.9246 C63.2568,30.9246 62.7458,30.6846 62.3288,30.2576 L62.3078,30.2676 L62.3078,32.7176 L61.1408,32.7176 L61.1408,25.9096 L62.3078,25.9096 L62.3078,26.4206 L62.3288,26.4316 C62.7458,26.0246 63.2568,25.7746 63.8508,25.7746 C65.1018,25.7746 66.1138,26.9216 66.1138,28.3496 C66.1138,29.7776 65.1018,30.9246 63.8508,30.9246 M63.6008,26.8686 C62.8508,26.8686 62.2458,27.5266 62.2458,28.3396 C62.2458,29.1626 62.8508,29.8196 63.6008,29.8196 C64.3308,29.8196 64.9458,29.1626 64.9458,28.3396 C64.9458,27.5266 64.3308,26.8686 63.6008,26.8686" id="Fill-35" fill="#00AECF"></path>
            <path d="M68.7712,25.7747 C69.3552,25.7747 69.8762,26.0247 70.2832,26.4417 L70.3032,26.4317 L70.3032,25.9097 L71.4712,25.9097 L71.4712,30.7887 L70.3032,30.7887 L70.3032,30.2887 L70.2832,30.2677 C69.8762,30.6747 69.3552,30.9247 68.7712,30.9247 C67.5202,30.9247 66.5082,29.7777 66.5082,28.3497 C66.5082,26.9207 67.5202,25.7747 68.7712,25.7747 M69.0212,29.8197 C69.7622,29.8197 70.3662,29.1727 70.3662,28.3497 C70.3662,27.5257 69.7622,26.8687 69.0212,26.8687 C68.2922,26.8687 67.6762,27.5257 67.6762,28.3497 C67.6762,29.1727 68.2922,29.8197 69.0212,29.8197" id="Fill-37" fill="#00AECF"></path>
            <path d="M76.3498,30.1531 C75.8808,30.6321 75.2238,30.9241 74.5048,30.9241 C73.0658,30.9241 71.9188,29.7781 71.9188,28.3491 C71.9188,26.9211 73.0658,25.7751 74.5048,25.7751 C75.2238,25.7751 75.8808,26.0661 76.3498,26.5461 L75.5258,27.3171 C75.2658,27.0361 74.9108,26.8691 74.5048,26.8691 C73.7118,26.8691 73.0868,27.5361 73.0868,28.3491 C73.0868,29.1631 73.7118,29.8201 74.5048,29.8201 C74.9108,29.8201 75.2868,29.6421 75.5468,29.3611 L76.3498,30.1531 Z" id="Fill-39" fill="#00AECF"></path>
            <polygon id="Fill-41" fill="#00AECF" points="78.6979 27.0359 78.6979 30.7889 77.5299 30.7889 77.5299 27.0359 76.7209 27.0359 76.7209 25.9099 77.5299 25.9099 77.5299 23.7209 78.6979 23.7209 78.6979 25.9099 79.5069 25.9099 79.5069 27.0359"></polygon>
            <path d="M37.529,29.4905 C37.529,28.6245 38.093,28.1575 39.037,28.0405 L40.361,27.8755 L40.361,27.4075 C40.361,26.6495 40.029,26.4645 39.134,26.4645 C38.648,26.4645 38.249,26.5425 37.947,26.6105 L37.947,25.9975 C38.395,25.8225 38.872,25.7245 39.475,25.7245 C40.584,25.7245 41.217,26.1925 41.217,27.1945 L41.217,30.8135 L40.526,30.8135 L40.438,30.3955 L40.38,30.3955 C40.136,30.6775 39.737,30.9105 39.076,30.9105 C38.181,30.9105 37.529,30.4535 37.529,29.4905 M40.361,29.9085 L40.361,28.5275 L39.261,28.6435 C38.696,28.7025 38.414,28.9265 38.414,29.4705 C38.414,29.9965 38.765,30.2495 39.3,30.2495 C39.728,30.2495 40.146,30.1035 40.361,29.9085" id="Fill-43" fill="#00AECF"></path>
            <path d="M83.0553,28.4095 L83.0553,28.2435 C83.0553,26.4835 84.1163,25.7045 85.4303,25.7045 C86.0813,25.7045 86.4613,25.8315 86.7913,26.0355 L86.7913,26.7455 C86.3443,26.5605 86.0333,26.4345 85.3713,26.4345 C84.4853,26.4345 83.9413,27.0375 83.9413,28.1175 L83.9413,28.3805 C83.9413,29.6355 84.4663,30.1605 85.4783,30.1605 C86.1493,30.1605 86.5973,29.9375 86.8503,29.8105 L86.8503,30.4915 C86.5193,30.7055 86.0713,30.8905 85.3813,30.8905 C83.9603,30.8905 83.0553,30.0835 83.0553,28.4095" id="Fill-45" fill="#00AECF"></path>
            <path d="M87.3664,28.3997 L87.3664,28.2347 C87.3664,26.6677 88.2814,25.7047 89.6524,25.7047 C91.0834,25.7047 91.9294,26.6387 91.9294,28.2057 L91.9294,28.3607 C91.9294,29.9377 91.0144,30.8907 89.6424,30.8907 C88.2034,30.8907 87.3664,29.9667 87.3664,28.3997 M91.0444,28.4587 L91.0444,28.1857 C91.0444,26.8337 90.4114,26.4057 89.6334,26.4057 C88.7574,26.4057 88.2514,27.0377 88.2514,28.1467 L88.2514,28.4197 C88.2514,29.7717 88.8844,30.1907 89.6624,30.1907 C90.5284,30.1907 91.0444,29.5767 91.0444,28.4587" id="Fill-47" fill="#00AECF"></path>
            <path d="M92.8444,25.8021 L93.6614,25.8021 L93.6614,26.2301 L93.7104,26.2301 C94.1284,25.9481 94.6734,25.7051 95.2284,25.7051 C95.7924,25.7051 96.1914,25.8801 96.4254,26.2601 L96.4734,26.2601 C96.9994,25.9091 97.5734,25.7051 98.1374,25.7051 C99.0134,25.7051 99.5194,26.1141 99.5194,27.0771 L99.5194,30.7931 L98.6624,30.7931 L98.6624,27.2611 C98.6624,26.6881 98.4584,26.4441 97.7974,26.4441 C97.4274,26.4441 97.0184,26.5801 96.5904,26.7851 C96.6004,26.8821 96.6104,26.9701 96.6104,27.0771 L96.6104,30.7931 L95.7544,30.7931 L95.7544,27.2611 C95.7544,26.6881 95.5494,26.4441 94.8874,26.4441 C94.4894,26.4441 94.0604,26.6001 93.7004,26.7751 L93.7004,30.7931 L92.8444,30.7931 L92.8444,25.8021 Z" id="Fill-49" fill="#00AECF"></path>
            <path d="M100.7165,25.8021 L101.5335,25.8021 L101.5335,26.2011 L101.5825,26.2011 C101.8835,25.9191 102.4095,25.7051 103.0225,25.7051 C104.1025,25.7051 105.0655,26.3181 105.0655,28.1571 L105.0655,28.2931 C105.0655,30.1221 104.1905,30.8901 102.8185,30.8901 C102.2535,30.8901 101.8355,30.7251 101.5725,30.5701 L101.5725,32.6901 L100.7165,32.6901 L100.7165,25.8021 Z M104.1805,28.4091 L104.1805,28.1961 C104.1805,26.8431 103.6835,26.4341 102.7885,26.4341 C102.2345,26.4341 101.7865,26.6191 101.5725,26.7751 L101.5725,29.8501 C101.7865,30.0251 102.2345,30.1901 102.7395,30.1901 C103.6445,30.1901 104.1805,29.7131 104.1805,28.4091 Z" id="Fill-51" fill="#00AECF"></path>
            <path d="M105.6886,29.47 C105.6886,28.604 106.2526,28.137 107.1966,28.02 L108.5196,27.855 L108.5196,27.388 C108.5196,26.629 108.1886,26.444 107.2936,26.444 C106.8076,26.444 106.4086,26.522 106.1066,26.59 L106.1066,25.977 C106.5546,25.802 107.0316,25.705 107.6346,25.705 C108.7436,25.705 109.3766,26.172 109.3766,27.174 L109.3766,30.793 L108.6856,30.793 L108.5976,30.375 L108.5396,30.375 C108.2966,30.657 107.8976,30.89 107.2356,30.89 C106.3396,30.89 105.6886,30.433 105.6886,29.47 M108.5196,29.888 L108.5196,28.507 L107.4206,28.623 C106.8556,28.682 106.5736,28.906 106.5736,29.451 C106.5736,29.976 106.9246,30.229 107.4596,30.229 C107.8876,30.229 108.3066,30.083 108.5196,29.888" id="Fill-53" fill="#00AECF"></path>
            <path d="M110.5734,25.8021 L111.3904,25.8021 L111.3904,26.2301 L111.4394,26.2301 C111.8574,25.9381 112.5104,25.7051 113.1224,25.7051 C114.1054,25.7051 114.5734,26.1141 114.5734,27.0771 L114.5734,30.7931 L113.7164,30.7931 L113.7164,27.2611 C113.7164,26.6881 113.5314,26.4441 112.7434,26.4441 C112.3054,26.4441 111.7894,26.6101 111.4294,26.7751 L111.4294,30.7931 L110.5734,30.7931 L110.5734,25.8021 Z" id="Fill-55" fill="#00AECF"></path>
            <path d="M115.4001,32.5833 L115.4001,31.9803 C115.5261,32.0003 115.7021,32.0193 115.8861,32.0193 C116.3431,32.0193 116.6651,31.8053 116.8791,31.2703 L117.1031,30.6963 L115.1861,25.8023 L116.1101,25.8023 L117.5211,29.5673 L117.5501,29.5673 L118.8441,25.8023 L119.6911,25.8023 L117.6671,31.3873 C117.3261,32.3403 116.8891,32.7293 116.0421,32.7293 C115.8091,32.7293 115.5461,32.6613 115.4001,32.5833" id="Fill-57" fill="#00AECF"></path>
        </g>
    </g>
</svg>